<svg width="237" height="64" viewBox="0 0 237 64" fill="none" xmlns="http://www.w3.org/2000/svg">
<path d="M118 19.8V45H113.068V28.656L105.976 40.356H105.4L98.308 28.692V45H93.34V19.8H98.452L105.688 31.716L112.888 19.8H118ZM137.815 42.768C135.967 44.592 133.711 45.504 131.047 45.504C128.383 45.504 126.127 44.592 124.279 42.768C122.455 40.92 121.543 38.664 121.543 36C121.543 33.336 122.455 31.092 124.279 29.268C126.127 27.42 128.383 26.496 131.047 26.496C133.711 26.496 135.967 27.42 137.815 29.268C139.663 31.092 140.587 33.336 140.587 36C140.587 38.664 139.663 40.92 137.815 42.768ZM127.555 39.564C128.491 40.5 129.655 40.968 131.047 40.968C132.439 40.968 133.603 40.5 134.539 39.564C135.475 38.628 135.943 37.44 135.943 36C135.943 34.56 135.475 33.372 134.539 32.436C133.603 31.5 132.439 31.032 131.047 31.032C129.655 31.032 128.491 31.5 127.555 32.436C126.643 33.372 126.187 34.56 126.187 36C126.187 37.44 126.643 38.628 127.555 39.564ZM154.33 26.496C156.754 26.496 158.818 27.42 160.522 29.268C162.25 31.092 163.114 33.336 163.114 36C163.114 38.664 162.25 40.92 160.522 42.768C158.818 44.592 156.754 45.504 154.33 45.504C151.81 45.504 149.866 44.628 148.498 42.876V52.2H143.854V27H148.498V29.124C149.866 27.372 151.81 26.496 154.33 26.496ZM149.902 39.672C150.838 40.608 152.026 41.076 153.466 41.076C154.906 41.076 156.094 40.608 157.03 39.672C157.99 38.712 158.47 37.488 158.47 36C158.47 34.512 157.99 33.3 157.03 32.364C156.094 31.404 154.906 30.924 153.466 30.924C152.026 30.924 150.838 31.404 149.902 32.364C148.966 33.3 148.498 34.512 148.498 36C148.498 37.488 148.966 38.712 149.902 39.672ZM176.866 26.496C179.29 26.496 181.354 27.42 183.058 29.268C184.786 31.092 185.65 33.336 185.65 36C185.65 38.664 184.786 40.92 183.058 42.768C181.354 44.592 179.29 45.504 176.866 45.504C174.346 45.504 172.402 44.628 171.034 42.876V52.2H166.39V27H171.034V29.124C172.402 27.372 174.346 26.496 176.866 26.496ZM172.438 39.672C173.374 40.608 174.562 41.076 176.002 41.076C177.442 41.076 178.63 40.608 179.566 39.672C180.526 38.712 181.006 37.488 181.006 36C181.006 34.512 180.526 33.3 179.566 32.364C178.63 31.404 177.442 30.924 176.002 30.924C174.562 30.924 173.374 31.404 172.438 32.364C171.502 33.3 171.034 34.512 171.034 36C171.034 37.488 171.502 38.712 172.438 39.672ZM192.849 37.908C193.473 40.164 195.165 41.292 197.925 41.292C199.701 41.292 201.045 40.692 201.957 39.492L205.701 41.652C203.925 44.22 201.309 45.504 197.853 45.504C194.877 45.504 192.489 44.604 190.689 42.804C188.889 41.004 187.989 38.736 187.989 36C187.989 33.288 188.877 31.032 190.653 29.232C192.429 27.408 194.709 26.496 197.493 26.496C200.133 26.496 202.305 27.408 204.009 29.232C205.737 31.056 206.601 33.312 206.601 36C206.601 36.6 206.541 37.236 206.421 37.908H192.849ZM192.777 34.308H201.957C201.693 33.084 201.141 32.172 200.301 31.572C199.485 30.972 198.549 30.672 197.493 30.672C196.245 30.672 195.213 30.996 194.397 31.644C193.581 32.268 193.041 33.156 192.777 34.308ZM214.487 30.096C214.919 28.944 215.627 28.08 216.611 27.504C217.619 26.928 218.735 26.64 219.959 26.64V31.824C218.543 31.656 217.271 31.944 216.143 32.688C215.039 33.432 214.487 34.668 214.487 36.396V45H209.843V27H214.487V30.096ZM226.396 32.112C226.396 32.592 226.708 32.988 227.332 33.3C227.98 33.588 228.76 33.852 229.672 34.092C230.584 34.308 231.496 34.596 232.408 34.956C233.32 35.292 234.088 35.868 234.712 36.684C235.36 37.5 235.684 38.52 235.684 39.744C235.684 41.592 234.988 43.02 233.596 44.028C232.228 45.012 230.512 45.504 228.448 45.504C224.752 45.504 222.232 44.076 220.888 41.22L224.92 38.952C225.448 40.512 226.624 41.292 228.448 41.292C230.104 41.292 230.932 40.776 230.932 39.744C230.932 39.264 230.608 38.88 229.96 38.592C229.336 38.28 228.568 38.004 227.656 37.764C226.744 37.524 225.832 37.224 224.92 36.864C224.008 36.504 223.228 35.94 222.58 35.172C221.956 34.38 221.644 33.396 221.644 32.22C221.644 30.444 222.292 29.052 223.588 28.044C224.908 27.012 226.54 26.496 228.484 26.496C229.948 26.496 231.28 26.832 232.48 27.504C233.68 28.152 234.628 29.088 235.324 30.312L231.364 32.472C230.788 31.248 229.828 30.636 228.484 30.636C227.884 30.636 227.38 30.768 226.972 31.032C226.588 31.296 226.396 31.656 226.396 32.112Z" fill="white"/>
<circle cx="49" cy="34" r="30" fill="white"/>
<g clip-path="url(#clip0)">
<path d="M51.8456 29.1149C51.7167 28.857 51.3942 28.728 51.1363 28.6635C49.6532 28.6635 36.8852 28.1477 36.8852 13.3162C36.8852 12.8648 36.4983 12.4779 36.0469 12.4779C35.5955 12.4779 35.2086 12.8648 35.2086 13.3162C35.2086 28.1477 22.4407 28.6635 21.022 28.6635C20.8286 28.6635 20.6351 28.728 20.5062 28.857C20.3772 28.9215 20.3127 29.0504 20.2482 29.1149C20.1192 29.3729 20.1192 29.6953 20.2482 29.9532C20.3772 30.2112 20.6996 30.4046 21.022 30.4046C21.022 30.4046 21.022 30.4046 21.0865 30.4046C22.5697 30.4046 35.2731 30.9205 35.2731 45.7519C35.2731 46.2033 35.66 46.5902 36.1114 46.5902C36.5628 46.5902 36.9497 46.2033 36.9497 45.7519C36.9497 30.985 49.6532 30.4046 51.1363 30.4046C51.4587 30.4046 51.7167 30.2112 51.9101 29.9532C52.0391 29.6953 52.0391 29.3729 51.8456 29.1149ZM36.0469 39.4324C34.1769 33.3064 29.5985 30.6626 25.9873 29.5018C29.5985 28.3411 34.1769 25.6972 36.0469 19.5712C37.917 25.6972 42.4954 28.3411 46.1065 29.5018C42.4954 30.6626 37.917 33.3064 36.0469 39.4324Z" fill="#1C1959"/>
<path d="M25.4069 12.3489C25.8583 12.3489 26.2452 11.962 26.2452 11.4462C26.2452 10.9948 25.8583 10.6079 25.4069 10.6079C24.6331 10.6079 17.6687 10.3499 17.6687 2.22487C17.6687 1.77348 17.2818 1.38657 16.8304 1.38657C16.3791 1.38657 15.9921 1.77348 15.9921 2.22487C15.9921 10.3499 9.02782 10.6079 8.25401 10.6079C8.18952 10.6079 8.18952 10.6079 8.18952 10.6079C7.73813 10.6723 7.41571 10.9948 7.41571 11.4462C7.41571 11.8976 7.80262 12.2845 8.25401 12.2845C9.09231 12.2845 15.9921 12.5424 15.9921 20.6675C15.9921 21.1188 16.3791 21.5058 16.8304 21.5058C17.2174 21.5702 17.6043 21.1833 17.6043 20.7319C17.6043 12.6069 24.5686 12.3489 25.3424 12.3489H25.4069ZM16.766 16.0246C15.7342 13.5742 13.8642 12.22 12.1231 11.4462C13.9931 10.6723 15.7342 9.1892 16.766 6.86776C17.7977 9.31817 19.6678 10.6723 21.4088 11.4462C19.5388 12.22 17.7977 13.7031 16.766 16.0246Z" fill="white"/>
<path d="M17.9912 39.6904C17.2174 39.6904 10.253 39.4324 10.253 31.3074C10.253 30.856 9.86613 30.4691 9.41474 30.4691C8.96335 30.4691 8.57644 30.856 8.57644 31.3074C8.57644 39.4324 1.61211 39.6904 0.838299 39.6904C0.773814 39.6904 0.773814 39.6904 0.773814 39.6904C0.322423 39.7549 0 40.0773 0 40.5287C0 40.9801 0.386907 41.367 0.838299 41.367C1.6766 41.367 8.57644 41.6249 8.57644 49.75C8.57644 50.2013 8.96335 50.5882 9.41474 50.5882C9.80165 50.7172 10.1886 50.3303 10.1886 49.8144C10.1886 41.6894 17.1529 41.4315 17.9267 41.4315H17.9912C18.4426 41.4315 18.8295 41.0445 18.8295 40.5287C18.8295 40.0773 18.4426 39.6904 17.9912 39.6904ZM9.35026 45.1716C8.25402 42.7211 6.44845 41.367 4.70737 40.5932C6.57742 39.8193 8.31851 38.3362 9.35026 36.0148C10.382 38.4652 12.2521 39.8193 13.9931 40.5932C12.1231 41.367 10.382 42.8501 9.35026 45.1716Z" fill="white"/>
</g>
<defs>
<clipPath id="clip0">
<rect width="52" height="52" fill="white"/>
</clipPath>
</defs>
</svg>
